<?xml version="1.0" encoding="UTF-8"?>
<svg id="uuid-f5f80128-703e-4aac-87ed-e8a595fcec4d" data-name="Layer 1" xmlns="http://www.w3.org/2000/svg" viewBox="0 0 533.39 328.66">
  <defs>
    <style>
      .uuid-c14d7ff1-955c-442d-9468-6fceb0f524fb {
        fill: #fff;
      }
    </style>
  </defs>
  <path class="uuid-c14d7ff1-955c-442d-9468-6fceb0f524fb" d="M365.99,240.01c-3.55,10.61-5.52,18.56-8.83,25.91-4.33,9.62-8.94,19.3-14.84,28-7.57,11.16-11.81,11.35-24.1,4.16-13.95,10.68-16.48,10.67-26.8-2.49-4.09-5.22-6.93-11.45-10.12-17.34-2.01-3.72-3.62-7.66-6.85-14.6-2.29,7.81-3.12,12.84-5.22,17.27-3.23,6.84-5.9,15.49-14.7,16.37-9.36,.93-13.11-6.93-15.9-14.37-2.36-6.29-3.98-12.85-6.15-19.21-1.8-5.25-3.92-10.39-5.91-15.58-1.12,.1-2.23,.2-3.35,.3-.87,4.97-1.65,9.97-2.62,14.92-2.25,11.44-4.8,22.81-13.56,31.41-7.19,7.06-12.39,6.6-17.43-1.9-2.94-4.96-5.08-10.4-8.7-17.96-3.74,9.02-6.93,16.21-9.7,23.57-2.42,6.45-4.81,13.18-12.45,14.49-6.22,1.06-11.8-5.35-15.06-15.23-3.24-9.82-4.24-19.67-2.73-30.03,2.82-19.21,5.55-38.3,16.56-55.06,3.27-4.98,5.78-10.5,13.07-9.17,6.61,1.21,11.65,4.05,12.58,11.86,1.3,10.93,4.12,21.74,4.7,32.69,.64,12.03,5.44,22.14,11.89,35.32,3.62-7.68,7.44-12.85,8.46-18.52,3.09-17.12,6.29-34.37,3.07-51.91-.81-4.38-1.74-8.99,3.66-11.08,4.6-1.78,9.75,1.77,11.27,8.49,2.35,10.42,5.85,19.42,13.36,27.95,5.06,5.75,4.62,16.3,6.79,24.66,1.53,5.87,3.31,11.66,5.25,18.42,8.1-3.65,8.31-10.1,9.21-15.2,2.18-12.42,2.8-24.97-.79-37.41-1.2-4.15-2.08-8.52-2.2-12.81-.22-7.66,.42-7.92,11.7-8.1,2.25,7.5,2.53,16.95,7.3,22.68,12.03,14.46,11.51,33.17,19.35,48.82,2.05,4.09,4.14,8.16,6.77,13.36,6.68-6.96,6.21-13.82,6.42-20.42,.24-7.74,.17-15.48,.38-23.22,.06-2.41,.27-4.89,.94-7.19,1.23-4.27,3.15-9.27,8.42-7.86,2.81,.76,6.24,5.11,6.56,8.14,.85,8.07,.62,16.33-.04,24.45-.62,7.6-2.82,15.17,2.32,22.15,18.8-11.43,37.15-57.12,32.32-81.2-5.75-.52-11.79-1.06-18.27-1.64-.44-11.52,9.6-8.88,15.89-12.42-2.49-27.55-6.8-55.3-2.26-83.39,7.48-1.07,10.45,1.79,10.66,8.53,.52,17.37,1.2,34.73,1.94,52.1,.2,4.74,.81,9.45,1.39,15.93,4.85-2.87,8.62-4.66,11.89-7.12,7.33-5.53,14.24-11.61,21.64-17.03,5.27-3.86,6.95-7.92,5.81-14.77-3.25-19.54-2.07-39.25-1.7-58.77,10.53-1.97,10.73,3.95,11.09,10.15,.91,15.84,2.03,31.67,3.23,49.95,21-12.42,40.14-24.18,58.33-37.38,17.68-12.83,34.92-26.28,53.42-38.04-30.36,35.96-71.13,58.63-109.52,85.63,.34,21.76,5.63,43.01,11.47,63.75,5.66,20.09,11.13,40.81,27.15,56.84-10.12,5.76-14.24,1.56-16.83-4.92-6.43-16.1-12.54-32.32-18.77-48.5-1.5-3.9-2.92-7.84-7.12-12-4.04,13.03-8.13,26.04-12.07,39.1-.69,2.29-.29,4.96-1.18,7.13-2.82,6.85-6.47,13.38-14.63,14.63-8.27,1.27-12.3-4.94-15.46-10.92-3.59-6.78-6.13-14.11-10.47-24.36Zm45.06-73.84c-11.67,10.19-21.98,19.4-32.53,28.33-9.18,7.77-9.58,8.48-6.33,19.41,.68,2.28,2.18,4.69,1.87,6.84-1.94,13.42,6.03,24.11,9.73,35.92,.97,3.11,4.33,5.46,6.77,8.38,18.02-22.22,29.8-76.65,20.48-98.88Zm-254.5,134.35c17.73-25.03,16.34-52.59,16.58-79.7,.02-1.86-2.87-3.75-5.61-7.07-3.41,6.21-7.04,10.46-8.18,15.3-3.94,16.79-7.5,33.71-10.19,50.74-1.11,7.03,1.85,13.87,7.39,20.74Z"/>
  <path class="uuid-c14d7ff1-955c-442d-9468-6fceb0f524fb" d="M97.77,73.76c4.62-5.96,7.48-10.11,10.81-13.82,3.08-3.42,6.06-9.33,11.47-6.27,2.94,1.66,5.21,7.02,5.32,10.78,.82,28.51,1.22,57.03,1.37,85.56,.19,34.37-2.99,68.52-10.52,102.03-4.19,18.66-10.64,36.84-16.58,55.06-1.06,3.26-4.13,7.3-7.14,8.27-18.46,5.93-37.27,11.31-56.59,4.06-6.55-2.46-12.42-6.72-19.64-10.72-7.4,3.49-2.44,16.88-13.26,19.96-3.76-4.75-4.24-9.31-.09-14.03,8.2-9.32,8.48-19.31,4.69-30.87-4.72-14.38-1.36-28.83,4.41-42.24,5.58-12.96,14.74-13.51,23.99-2.33,1.52,1.83,2.24,4.32,4.46,8.76,20.08-42.42,31.09-82.74,37.29-124.68-18.75-.62-24-6.01-25.85-24.22-1.46-14.35,.7-28.16,6.09-41.21,7.13-17.27,15.31-34.12,23.19-51.08,2.82-6.07,7.55-8.28,15.43-5.74,6.31,22.92-2.2,46.47,1.14,72.72Zm-58.56,195.88c-4.82,8-8.64,14.04-12.16,20.25-4.52,7.97-4.3,10.49,2.83,15.81,4.55,3.4,9.71,6.89,15.1,8.1,14.68,3.32,28.73-.58,41.84-7.06,3.3-1.63,6.02-6.13,7.3-9.9,10.26-30.25,15.51-61.63,19.67-93.18,5.34-40.55,1.5-81.13-.3-121.7-.07-1.69-.7-3.35-1.21-5.68-10.47,9.95-20.56,24.91-22.58,33.93-5.12,22.94-9.18,46.15-15.24,68.83-5.45,20.38-12.13,40.55-19.97,60.13-4.73,11.81-10.66,21.97,2.08,32.35,1.53,1.24-.31,6.62-.59,10.08-3.57-.38-7.72,.22-10.53-1.44-2.45-1.44-3.38-5.44-6.23-10.53Zm27.84-158.02c10.16-3.58,14.51-10.8,17.36-20.05,6.53-21.23,5.15-43,5.34-64.68,.03-2.96-.67-5.92-1.02-8.88-7,9.01-12.65,17.96-16.34,27.64-4.78,12.52-8.68,25.48-11.66,38.55-2.17,9.52,.44,18.82,6.33,27.41ZM21.83,243.34c-5.97,14.55-10.09,27.37-5.64,45.06,5.24-7.4,8.54-11.93,11.7-16.55,8.47-12.39,7.9-16.13-6.05-28.51Z"/>
</svg>